<svg width="512" height="512" xmlns="http://www.w3.org/2000/svg">

 <g>
  <title>background</title>
  <rect fill="none" id="canvas_background" height="402" width="582" y="-1" x="-1"/>
 </g>
 <g>
  <title>Layer 1</title>
  <path fill="#efefef" id="svg_2" d="m413.7,132.35935c-2.4,-9 -4,-14 -4,-14c-2.6,-9.3 -9.2,-9.3 -19,-10.9l-53.1,-6.7c-6.6,-1.1 -6.6,-1.1 -9.2,-6.8c-8.7,-19.6 -11.4,-31 -20.9,-31l-103,0c-9.5,0 -12.1,11.4 -20.8,31.1c-2.6,5.6 -2.6,5.6 -9.2,6.8l-53.2,6.7c-9.7,1.6 -16.7,2.5 -19.3,11.8c0,0 -1.2,4.1 -3.7,13c-3.2,11.9 -4.5,10.6 6.5,10.6l302.4,0c11,0.1 9.8,1.3 6.5,-10.6z"/>
  <path fill="#efefef" id="svg_3" d="m379.4,176l-246.8,0c-16.6,0 -17.4,2.2 -16.4,14.7l18.7,242.6c1.6,12.3 2.8,14.8 17.5,14.8l207.2,0c14.7,0 15.9,-2.5 17.5,-14.8l18.7,-242.6c1,-12.6 0.2,-14.7 -16.4,-14.7z"/>
 </g>
</svg>